<svg xmlns="http://www.w3.org/2000/svg" xmlns:xlink="http://www.w3.org/1999/xlink" width="0" height="0" style="display:none;"><symbol viewBox="0 0 512.001 512.001" id="bi-email-1"><path d="M501.801 90.455H10.199C4.567 90.455 0 95.021 0 100.654v268.728c0 28.764 23.4 52.165 52.165 52.165h407.671c28.764 0 52.165-23.401 52.165-52.165V100.654c-.001-5.633-4.568-10.199-10.2-10.199zm-10.199 278.926c0 17.516-14.25 31.766-31.766 31.766H52.165c-17.516 0-31.766-14.251-31.766-31.766V122.906l229.14 187.584a10.184 10.184 0 0 0 6.461 2.307c2.287 0 4.574-.767 6.452-2.3l177.306-144.829c4.362-3.564 5.01-9.988 1.447-14.351-3.565-4.363-9.988-5.011-14.351-1.446L256.007 289.423 37.879 110.853h453.723v258.528z"></path><path d="M469.923 127.859c-3.563-4.363-9.99-5.011-14.35-1.447l-3.06 2.499c-4.363 3.564-5.011 9.988-1.448 14.351a10.177 10.177 0 0 0 7.905 3.747c2.269 0 4.552-.754 6.445-2.3l3.06-2.499c4.363-3.563 5.011-9.988 1.448-14.351z"></path></symbol><symbol id="bi-email-f"><path d="M49.106 178.729c6.472 4.567 25.981 18.131 58.528 40.685 32.548 22.554 57.482 39.92 74.803 52.099 1.903 1.335 5.946 4.237 12.131 8.71 6.186 4.476 11.326 8.093 15.416 10.852 4.093 2.758 9.041 5.852 14.849 9.277 5.806 3.422 11.279 5.996 16.418 7.7 5.14 1.718 9.898 2.569 14.275 2.569h.575c4.377 0 9.137-.852 14.277-2.569 5.137-1.704 10.615-4.281 16.416-7.7 5.804-3.429 10.752-6.52 14.845-9.277 4.093-2.759 9.229-6.376 15.417-10.852 6.184-4.477 10.232-7.375 12.135-8.71 17.508-12.179 62.051-43.11 133.615-92.79 13.894-9.703 25.502-21.411 34.827-35.116 9.332-13.699 13.993-28.07 13.993-43.105 0-12.564-4.523-23.319-13.565-32.264-9.041-8.947-19.749-13.418-32.117-13.418H45.679c-14.655 0-25.933 4.948-33.832 14.844C3.949 79.562 0 91.934 0 106.779c0 11.991 5.236 24.985 15.703 38.974 10.466 13.99 21.604 24.983 33.403 32.976z"></path><path d="M483.072 209.275c-62.424 42.251-109.824 75.087-142.177 98.501-10.849 7.991-19.65 14.229-26.409 18.699-6.759 4.473-15.748 9.041-26.98 13.702-11.228 4.668-21.692 6.995-31.401 6.995h-.578c-9.707 0-20.177-2.327-31.405-6.995-11.228-4.661-20.223-9.229-26.98-13.702-6.755-4.47-15.559-10.708-26.407-18.699-25.697-18.842-72.995-51.68-141.896-98.501C17.987 202.047 8.375 193.762 0 184.437v226.685c0 12.57 4.471 23.319 13.418 32.265 8.945 8.949 19.701 13.422 32.264 13.422h420.266c12.56 0 23.315-4.473 32.261-13.422 8.949-8.949 13.418-19.694 13.418-32.265V184.437c-8.186 9.132-17.7 17.417-28.555 24.838z"></path></symbol><symbol id="bi-email"><path d="M498.208 68.235c-8.945-8.947-19.701-13.418-32.261-13.418H45.682c-12.562 0-23.318 4.471-32.264 13.418C4.471 77.18 0 87.935 0 100.499v310.633c0 12.566 4.471 23.312 13.418 32.257 8.945 8.953 19.701 13.422 32.264 13.422h420.266c12.56 0 23.315-4.469 32.261-13.422 8.949-8.945 13.418-19.697 13.418-32.257V100.499c-.001-12.564-4.469-23.319-13.419-32.264zm-23.13 342.89c0 2.475-.903 4.616-2.714 6.424-1.81 1.81-3.949 2.706-6.42 2.706H45.679c-2.474 0-4.616-.896-6.423-2.706-1.809-1.808-2.712-3.949-2.712-6.424V191.858a167.121 167.121 0 0 0 19.7 18.843c51.012 39.209 91.553 71.374 121.627 96.5 9.707 8.186 17.607 14.561 23.697 19.13 6.09 4.571 14.322 9.185 24.694 13.846 10.373 4.668 20.129 6.991 29.265 6.991h.571c9.134 0 18.894-2.323 29.263-6.991 10.376-4.661 18.613-9.274 24.701-13.846 6.089-4.569 13.99-10.944 23.698-19.13 30.074-25.126 70.61-57.291 121.624-96.5a166.295 166.295 0 0 0 19.694-18.843v219.267zm0-303.205v3.14c0 11.229-4.421 23.745-13.271 37.543-8.851 13.798-18.419 24.792-28.691 32.974a43121.052 43121.052 0 0 0-114.495 90.506c-1.14.951-4.474 3.757-9.996 8.418-5.514 4.668-9.894 8.241-13.131 10.712-3.241 2.478-7.471 5.475-12.703 8.993-5.236 3.518-10.041 6.14-14.418 7.851-4.377 1.707-8.47 2.562-12.275 2.562h-.571c-3.806 0-7.895-.855-12.275-2.562-4.377-1.711-9.185-4.333-14.417-7.851-5.231-3.519-9.467-6.516-12.703-8.993-3.234-2.471-7.614-6.044-13.132-10.712-5.52-4.661-8.854-7.467-9.995-8.418a42000.437 42000.437 0 0 0-114.487-90.506c-27.981-22.076-41.969-49.106-41.969-81.083 0-2.472.903-4.615 2.712-6.421 1.809-1.809 3.949-2.714 6.423-2.714H465.95c1.52.855 2.854 1.093 3.997.715 1.143-.385 1.998.331 2.566 2.138.571 1.809 1.095 2.664 1.57 2.57.477-.096.764 1.093.859 3.571.089 2.473.137 3.718.137 3.718v3.849h-.001z"></path></symbol><symbol viewBox="0 0 512 512" id="bi-facebook-1"><path d="M222.892 388h51.491a8 8 0 0 0 8-8V264.093h26.751a8 8 0 0 0 7.958-7.18l4.51-43.772a7.997 7.997 0 0 0-2.019-6.179 7.997 7.997 0 0 0-5.939-2.641h-31.261v-17.73c0-3.662 1.159-3.936 2.928-3.936h27.682a8 8 0 0 0 8-8v-42.5a8 8 0 0 0-7.968-8L274.848 124c-26.752 0-41.029 11.77-48.295 21.643-10.146 13.787-11.661 29.941-11.661 38.343v20.334h-16.489a8 8 0 0 0-8 8v43.772a8 8 0 0 0 8 8h16.489V380a8 8 0 0 0 8 8zm-16.49-139.907v-27.772h16.489a8 8 0 0 0 8-8v-28.334c0-5.185.833-18.376 8.547-28.86 7.386-10.037 19.3-15.126 35.376-15.126l30.177.122v26.533h-19.682c-9.421 0-18.928 6.164-18.928 19.936v25.73a8 8 0 0 0 8 8h30.395l-2.862 27.772h-27.533a8 8 0 0 0-8 8V372H230.89V256.093a8 8 0 0 0-8-8h-16.488z"></path><path d="M437.022 74.984C388.67 26.63 324.381 0 256 0 187.624 0 123.338 26.63 74.984 74.984S0 187.624 0 256c0 68.388 26.63 132.678 74.984 181.028C123.335 485.375 187.621 512 256 512c68.385 0 132.673-26.625 181.021-74.972C485.372 388.679 512 324.389 512 256c0-68.378-26.628-132.664-74.978-181.016zm-11.314 350.73C380.381 471.039 320.111 496 256 496c-64.106 0-124.374-24.961-169.703-70.286C40.965 380.386 16 320.113 16 256c0-64.102 24.965-124.37 70.297-169.702C131.63 40.965 191.898 16 256 16c64.108 0 124.378 24.965 169.708 70.297C471.037 131.628 496 191.896 496 256c0 64.115-24.963 124.387-70.292 169.714z"></path><path d="M430.038 114.969a7.998 7.998 0 0 0-11.253-1.172 7.999 7.999 0 0 0-1.172 11.252C447.526 161.919 464 208.425 464 256c0 55.567-21.635 107.803-60.919 147.086C363.797 442.367 311.563 464 256 464c-51.26 0-100.505-18.807-138.663-52.956a8 8 0 0 0-10.67 11.922C147.763 459.745 200.797 480 256 480c59.837 0 116.089-23.297 158.394-65.601C456.701 372.094 480 315.84 480 256c0-51.234-17.744-101.319-49.962-141.031zM48 256c0-114.691 93.309-208 208-208 51.26 0 100.504 18.808 138.662 52.959a8 8 0 0 0 11.296-.625 8 8 0 0 0-.625-11.296C364.237 52.256 311.203 32 256 32c-59.829 0-116.079 23.301-158.389 65.611C55.301 139.92 32 196.171 32 256c0 51.24 17.744 101.328 49.963 141.038a7.983 7.983 0 0 0 6.217 2.96 8 8 0 0 0 6.208-13.041C64.474 350.088 48 303.58 48 256z"></path></symbol><symbol id="bi-facebook-f"><path d="M72.089.02 59.624 0C45.62 0 36.57 9.285 36.57 23.656v10.907H24.037a1.96 1.96 0 0 0-1.96 1.961v15.803a1.96 1.96 0 0 0 1.96 1.96H36.57v39.876a1.96 1.96 0 0 0 1.96 1.96h16.352a1.96 1.96 0 0 0 1.96-1.96V54.287h14.654a1.96 1.96 0 0 0 1.96-1.96l.006-15.803a1.963 1.963 0 0 0-1.961-1.961H56.842v-9.246c0-4.444 1.059-6.7 6.848-6.7l8.397-.003a1.96 1.96 0 0 0 1.959-1.96V1.98A1.96 1.96 0 0 0 72.089.02z"></path></symbol><symbol viewBox="0 0 288.861 288.861" id="bi-facebook"><path d="M167.172 288.861h-62.16V159.347H70.769v-59.48h34.242v-33.4C105.011 35.804 124.195 0 178.284 0c19.068 0 33.066 1.787 33.651 1.864l5.739.746-1.382 55.663-6.324-.058c-.013 0-14.223-.135-29.724-.135-11.536 0-13.066 2.847-13.066 14.171V99.88h50.913l-2.821 59.48h-48.086v129.501h-.012zm-49.314-12.854h36.453V146.5h48.677l1.607-33.779h-50.284V72.238c0-13.368 3.078-27.025 25.919-27.025 9.178 0 17.899.045 23.509.09l.778-31.292a300.444 300.444 0 0 0-26.247-1.157c-44.544 0-60.419 27.693-60.419 53.613v46.254H83.61V146.5h34.242v129.507h.006z"></path></symbol><symbol viewBox="0 -24 512 512" id="bi-fax-f"><path d="M161.285 0h-59.234C79.418 0 61.008 18.414 61.008 41.047V422.73c0 22.63 18.41 41.043 41.043 41.043h59.234c22.633 0 41.043-18.414 41.043-41.043V41.047C202.328 18.414 183.918 0 161.285 0zm300.063 43.758h-229.02V420.02h229.02c27.93 0 50.652-22.723 50.652-50.657V94.41c0-27.93-22.723-50.652-50.652-50.652zM302.207 367.035h-24.09c-8.281 0-15-6.719-15-15 0-8.285 6.719-15 15-15h24.09c8.281 0 15 6.715 15 15 0 8.281-6.719 15-15 15zm0-47.957h-24.09c-8.281 0-15-6.715-15-15s6.719-15 15-15h24.09c8.281 0 15 6.715 15 15s-6.719 15-15 15zm0-48.355h-24.09c-8.281 0-15-6.72-15-15 0-8.285 6.719-15 15-15h24.09c8.281 0 15 6.715 15 15 0 8.28-6.719 15-15 15zm82 96.183h-24.086c-8.285 0-15-6.715-15-15s6.715-15 15-15h24.086c8.285 0 15 6.715 15 15s-6.715 15-15 15zm0-47.957h-24.086c-8.285 0-15-6.715-15-15s6.715-15 15-15h24.086c8.285 0 15 6.715 15 15s-6.715 15-15 15zm0-48.355h-24.086c-8.285 0-15-6.715-15-15s6.715-15 15-15h24.086c8.285 0 15 6.715 15 15s-6.715 15-15 15zm82.004 96.312h-24.086c-8.285 0-15-6.715-15-15s6.715-15 15-15h24.086c8.285 0 15 6.715 15 15s-6.715 15-15 15zm0-47.957h-24.086c-8.285 0-15-6.715-15-15s6.715-15 15-15h24.086c8.285 0 15 6.715 15 15s-6.715 15-15 15zm0-48.355h-24.086c-8.285 0-15-6.715-15-15s6.715-15 15-15h24.086c8.285 0 15 6.715 15 15s-6.715 15-15 15zm15-76.2c0 13.09-10.649 23.743-23.738 23.743H286.859c-13.09 0-23.742-10.653-23.742-23.742v-68.973c0-13.094 10.653-23.742 23.742-23.742h170.614c13.09 0 23.738 10.648 23.738 23.742zm0 0"></path><path d="M293.117 131.68h158.098v56.457H293.117zM31.008 47.723C12.805 55.41 0 73.44 0 94.41v274.953c0 20.969 12.805 39 31.008 46.688zm0 0"></path></symbol><symbol viewBox="0 0 512 512" id="bi-fax"><path d="M467 92h-15V15c0-8.284-6.716-15-15-15H227c-8.284 0-15 6.716-15 15v77h-32.58c-6.192-17.458-22.865-30-42.42-30h-32c-19.555 0-36.228 12.542-42.42 30H45c-24.813 0-45 20.187-45 45v300c0 24.813 20.187 45 45 45h17.58c6.192 17.458 22.865 30 42.42 30h32c19.555 0 36.228-12.542 42.42-30H467c24.813 0 45-20.187 45-45V137c0-24.813-20.187-45-45-45zM60 452H45c-8.271 0-15-6.729-15-15V137c0-8.271 6.729-15 15-15h15v330zm92 15c0 8.271-6.729 15-15 15h-32c-8.271 0-15-6.729-15-15V107c0-8.271 6.729-15 15-15h32c8.271 0 15 6.729 15 15v360zm90-437h180v62H242V30zm240 407c0 8.271-6.729 15-15 15H182V122h285c8.271 0 15 6.729 15 15v300z"></path><path d="M257 392h-30c-8.284 0-15 6.716-15 15s6.716 15 15 15h30c8.284 0 15-6.716 15-15s-6.716-15-15-15zm90 0h-30c-8.284 0-15 6.716-15 15s6.716 15 15 15h30c8.284 0 15-6.716 15-15s-6.716-15-15-15zm90 0h-30c-8.284 0-15 6.716-15 15s6.716 15 15 15h30c8.284 0 15-6.716 15-15s-6.716-15-15-15zm-180-60h-30c-8.284 0-15 6.716-15 15s6.716 15 15 15h30c8.284 0 15-6.716 15-15s-6.716-15-15-15zm90 0h-30c-8.284 0-15 6.716-15 15s6.716 15 15 15h30c8.284 0 15-6.716 15-15s-6.716-15-15-15zm90 0h-30c-8.284 0-15 6.716-15 15s6.716 15 15 15h30c8.284 0 15-6.716 15-15s-6.716-15-15-15zm-180-60h-30c-8.284 0-15 6.716-15 15s6.716 15 15 15h30c8.284 0 15-6.716 15-15s-6.716-15-15-15zm90 0h-30c-8.284 0-15 6.716-15 15s6.716 15 15 15h30c8.284 0 15-6.716 15-15s-6.716-15-15-15zm90 0h-30c-8.284 0-15 6.716-15 15s6.716 15 15 15h30c8.284 0 15-6.716 15-15s-6.716-15-15-15zm0-120H227c-8.284 0-15 6.716-15 15v60c0 8.284 6.716 15 15 15h210c8.284 0 15-6.716 15-15v-60c0-8.284-6.716-15-15-15zm-15 60H242v-30h180v30z"></path></symbol><symbol viewBox="0 0 362.68 362.68" id="bi-flickr-f"><circle cx="85.8" cy="181.34" r="85.8" style="fill:#005de1"></circle><circle cx="276.88" cy="181.34" r="85.8" style="fill:#ff007e"></circle></symbol><symbol id="bi-flickr"><path d="M121.5 135c-32.06 0-62.45 12.65-85.57 35.61C12.76 193.63 0 223.96 0 256s12.76 62.37 35.93 85.39C59.05 364.35 89.44 377 121.5 377c65.89 0 119.5-54.28 119.5-121s-53.61-121-119.5-121zm0 212C71.9 347 30 305.33 30 256s41.9-91 91.5-91c49.35 0 89.5 40.82 89.5 91s-40.15 91-89.5 91zm355.14-176.32C453.78 147.67 423.54 135 391.5 135s-62.28 12.67-85.14 35.68C283.56 193.63 271 223.93 271 256s12.56 62.37 35.36 85.32c22.86 23.01 53.1 35.68 85.14 35.68s62.28-12.67 85.14-35.68C499.44 318.37 512 288.07 512 256s-12.56-62.37-35.36-85.32zM391.5 347c-49.9 0-90.5-40.82-90.5-91s40.6-91 90.5-91 90.5 40.82 90.5 91-40.6 91-90.5 91z"></path></symbol><symbol viewBox="0 0 512 512" id="bi-location-1"><path d="M255.873 0c-81.115 0-147.106 65.992-147.106 147.106 0 33.718 11.669 66.591 32.883 92.706.158.245.328.484.51.716l105.83 135.584a10 10 0 0 0 15.765-.002l106.338-136.297.109-.143c21.137-26.082 32.775-58.939 32.775-92.564C402.979 65.992 336.988 0 255.873 0zm98.578 227.344c-.127.156-.247.313-.363.474l-98.217 125.889-97.226-124.56a10.041 10.041 0 0 0-.814-1.14c-18.744-22.687-29.066-51.418-29.066-80.901 0-70.087 57.021-127.108 127.108-127.108s127.108 57.021 127.109 127.108c0 29.168-10.133 57.664-28.531 80.238z"></path><path d="M342.179 123.759c-1.563-5.297-7.124-8.323-12.42-6.761-5.297 1.563-8.324 7.123-6.761 12.42 7.269 24.641.512 51.222-17.635 69.369-13.219 13.22-30.796 20.5-49.491 20.5s-36.272-7.28-49.492-20.501c-13.22-13.22-20.5-30.796-20.5-49.492s7.28-36.273 20.501-49.492a70 70 0 0 1 69.428-17.617c5.297 1.569 10.859-1.454 12.426-6.749 1.568-5.295-1.455-10.859-6.749-12.426-31.696-9.382-65.892-.702-89.245 22.651-16.996 16.997-26.357 39.596-26.357 63.633s9.36 46.635 26.357 63.632 39.596 26.358 63.633 26.358c24.037 0 46.635-9.361 63.632-26.356 23.329-23.329 32.017-57.497 22.673-89.169z"></path><path d="m319.683 85.837-.177-.178c-3.906-3.905-10.237-3.905-14.141 0-3.905 3.906-3.905 10.237 0 14.141l.177.178c1.952 1.953 4.511 2.929 7.07 2.929s5.118-.976 7.071-2.929c3.904-3.905 3.904-10.236 0-14.141zm89.925 219.468c-5.245-1.723-10.898 1.126-12.624 6.372-1.726 5.245 1.127 10.897 6.372 12.624 55.49 18.26 88.617 45.619 88.617 73.184 0 23.308-24.039 46.892-65.955 64.702-45.25 19.227-105.63 29.816-170.019 29.816S131.23 481.414 85.98 462.187c-41.915-17.81-65.955-41.393-65.955-64.702 0-19.52 16.836-39.348 47.408-55.834 32.301-17.419 78.046-30.034 128.807-35.521 5.49-.594 9.46-5.525 8.866-11.016-.594-5.49-5.527-9.464-11.016-8.866-53.273 5.759-101.625 19.184-136.15 37.802C20.053 344.481.027 369.874.027 397.485c0 32.183 27.748 61.698 78.132 83.107C125.828 500.845 188.985 512 256 512s130.172-11.155 177.839-31.408c50.384-21.409 78.132-50.923 78.132-83.107 0-37.174-37.309-70.772-102.363-92.18z"></path><path d="m363.857 293.317-.348-.07c-5.413-1.091-10.687 2.412-11.779 7.825-1.091 5.413 2.412 10.687 7.825 11.779l.348.07c.668.134 1.332.199 1.988.199 4.661 0 8.833-3.279 9.791-8.024 1.091-5.413-2.412-10.687-7.825-11.779zm-183.458 43.704c-1.083-5.414-6.35-8.925-11.766-7.844-.225.045-.464.101-.686.162-5.327 1.453-8.468 6.949-7.015 12.277 1.213 4.448 5.243 7.371 9.641 7.371.787 0 1.584-.093 2.38-.288 5.189-1.255 8.503-6.396 7.446-11.678z"></path><path d="M289.363 320.746c-5.511-.425-10.318 3.683-10.749 9.188-.431 5.505 3.683 10.318 9.188 10.749 65.285 5.11 100.056 24.205 100.056 36.024 0 5.702-9.09 15.388-34.709 23.92-25.802 8.593-60.303 13.326-97.149 13.326s-71.348-4.732-97.149-13.326c-25.619-8.532-34.709-18.218-34.709-23.92 0-5.211 7.067-11.781 18.904-17.572 4.96-2.427 7.013-8.415 4.586-13.375-2.427-4.96-8.415-7.014-13.376-4.586-24.888 12.178-30.113 26.045-30.113 35.535 0 37.581 76.393 57.244 151.856 57.244s151.856-19.663 151.857-57.245c.001-34.46-63.831-51.683-118.493-55.962z"></path></symbol><symbol viewBox="0 0 512 512" id="bi-location-f"><path d="M256 0C153.755 0 70.573 83.182 70.573 185.426c0 126.888 165.939 313.167 173.004 321.035 6.636 7.391 18.222 7.378 24.846 0 7.065-7.868 173.004-194.147 173.004-321.035C441.425 83.182 358.244 0 256 0zm0 278.719c-51.442 0-93.292-41.851-93.292-93.293S204.559 92.134 256 92.134s93.291 41.851 93.291 93.293-41.85 93.292-93.291 93.292z"></path></symbol><symbol viewBox="0 0 512 512" id="bi-location"><path d="M256 0C156.748 0 76 80.748 76 180c0 33.534 9.289 66.26 26.869 94.652l142.885 230.257A15 15 0 0 0 258.499 512h.119a14.997 14.997 0 0 0 12.75-7.292L410.611 272.22C427.221 244.428 436 212.539 436 180 436 80.748 355.252 0 256 0zm128.866 256.818L258.272 468.186l-129.905-209.34C113.734 235.214 105.8 207.95 105.8 180c0-82.71 67.49-150.2 150.2-150.2S406.1 97.29 406.1 180c0 27.121-7.411 53.688-21.234 76.818z"></path><path d="M256 90c-49.626 0-90 40.374-90 90 0 49.309 39.717 90 90 90 50.903 0 90-41.233 90-90 0-49.626-40.374-90-90-90zm0 150.2c-33.257 0-60.2-27.033-60.2-60.2 0-33.084 27.116-60.2 60.2-60.2s60.1 27.116 60.1 60.2c0 32.683-26.316 60.2-60.1 60.2z"></path></symbol><symbol id="bi-printer-1"><path d="M400.1 100.918h-9.871V11.646C390.229 5.215 385.014 0 378.582 0H108.804c-6.436 0-11.646 5.215-11.646 11.646v89.271h-9.877c-38.523 0-69.871 31.344-69.871 69.871v144.258c0 38.528 31.348 69.87 69.871 69.87h9.877v90.818c0 6.432 5.21 11.646 11.646 11.646h269.778c6.432 0 11.646-5.215 11.646-11.646v-90.818h9.871c38.523 0 69.871-31.342 69.871-69.87V170.789c.001-38.528-31.347-69.871-69.87-69.871zM120.449 23.291h246.489v77.627H120.449V23.291zm246.489 440.801H120.449V320.465h246.489v143.627zm79.744-149.046c0 25.687-20.896 46.581-46.582 46.581h-9.871v-41.162h25.186c6.436 0 11.645-5.214 11.645-11.646 0-6.43-5.209-11.645-11.645-11.645H75.421c-6.431 0-11.646 5.215-11.646 11.645 0 6.433 5.215 11.646 11.646 11.646h21.737v41.162h-9.877c-25.685 0-46.581-20.896-46.581-46.581V170.789c0-25.685 20.896-46.58 46.581-46.58H400.1c25.684 0 46.58 20.896 46.58 46.58v144.257h.002z"></path><path d="M378.582 170.646c-8.771 0-15.893 7.119-15.893 15.893s7.119 15.893 15.893 15.893c8.775 0 15.895-7.118 15.895-15.893-.002-8.774-7.12-15.893-15.895-15.893zM147.618 360.734h192.146c6.432 0 11.646-5.213 11.646-11.646 0-6.43-5.215-11.645-11.646-11.645H147.618c-6.431 0-11.646 5.215-11.646 11.645 0 6.433 5.215 11.646 11.646 11.646zm0 43.192h192.146c6.432 0 11.646-5.217 11.646-11.646 0-6.432-5.215-11.645-11.646-11.645H147.618c-6.431 0-11.646 5.213-11.646 11.645s5.215 11.646 11.646 11.646z"></path></symbol><symbol viewBox="0 0 16 16" id="bi-printer-f"><path d="M4 12.5v3h8v-5H4v2zm1-1h6v1H5v-1zm0 2h6v1H5v-1zm7-10v-3H4v5h8z" style="fill:#030104"></path><path d="M14 3.5h-1v3H3v-3H2c-1 0-2 1-2 2v5c0 1 1 2 2 2h1v-3h10v3h1c1 0 2-1 2-2v-5c0-1-1-2-2-2z" style="fill:#030104"></path></symbol><symbol viewBox="0 0 512 512" id="bi-printer"><path d="M475.934 108.229H380.35V54.285c0-5.995-4.862-10.857-10.857-10.857H142.507c-5.995 0-10.857 4.862-10.857 10.857v53.945H36.066C16.179 108.229 0 124.409 0 144.296v172.837C0 337.02 16.179 353.2 36.066 353.2h95.584v104.515c0 5.995 4.862 10.857 10.857 10.857h226.987c5.995 0 10.857-4.862 10.857-10.857V353.2h95.584c19.886 0 36.066-16.179 36.066-36.067V144.296c-.001-19.887-16.181-36.067-36.067-36.067zm-95.585 21.713h25.897v30.385h-25.897v-30.385zm-226.986-64.8h205.273v95.186H153.363V65.142zm-47.61 64.801h25.897v30.385h-25.897v-30.385zm252.884 316.915H153.363V303.879h205.273v142.979zm131.651-129.725h-.001c0 7.915-6.439 14.354-14.352 14.354H380.35V303.88h19.805c5.995 0 10.857-4.862 10.857-10.857s-4.862-10.857-10.857-10.857H111.846c-5.995 0-10.857 4.862-10.857 10.857s4.862 10.857 10.857 10.857h19.805v27.607H36.066c-7.913 0-14.352-6.439-14.352-14.354V144.296c0-7.914 6.439-14.354 14.352-14.354H84.04v41.241c0 5.995 4.861 10.857 10.857 10.857h322.207c5.995 0 10.857-4.862 10.857-10.857v-41.241h47.974c7.913 0 14.353 6.439 14.353 14.354v172.837z"></path><circle cx="68.799" cy="219.261" r="13.602"></circle><path d="M252.849 386.456h-50.68c-5.995 0-10.857 4.86-10.857 10.857 0 5.995 4.861 10.857 10.857 10.857h50.68c5.995 0 10.857-4.862 10.857-10.857 0-5.997-4.862-10.857-10.857-10.857zm56.982-54.973H202.169c-5.995 0-10.857 4.862-10.857 10.857 0 5.996 4.861 10.857 10.857 10.857H309.83c5.995 0 10.857-4.861 10.857-10.857 0-5.995-4.861-10.857-10.856-10.857z"></path></symbol><symbol id="bi-twitter-1"><path d="M605.95 114.16c-4.909-3.356-11.387-3.245-16.144.319-3.287 2.455-8.183 4.632-13.896 6.532 18.82-23.342 19.098-38.944 18.82-42.786a13.893 13.893 0 0 0-7.947-11.539c-4.549-2.136-9.875-1.664-13.952 1.276-25.658 18.363-51.329 22.357-66.308 22.884-24.382-22.648-55.906-35.061-89.414-35.061-72.494 0-131.479 58.957-131.479 131.451 0 5.243.305 10.485.929 15.672C165.581 199.899 67.457 85.867 66.472 84.703a13.773 13.773 0 0 0-11.789-4.854 13.908 13.908 0 0 0-10.763 6.824c-30.789 52.633-18.224 102.506 2.885 137.387-3.925-2.108-8.668-2.247-12.746-.208a13.873 13.873 0 0 0-7.697 12.191c-.901 55.296 24.354 88.443 49.832 107.748a13.765 13.765 0 0 0-4.979 3.482 13.875 13.875 0 0 0-3.01 13.453c17.711 57.127 59.318 78.539 88.513 86.557-33.48 23.605-74.893 29.139-106.362 29.139-20.096 0-33.938-2.385-34.077-2.414-6.269-1.109-12.565 2.262-15.131 8.143a13.856 13.856 0 0 0 4.383 16.6c63.146 47.475 139.397 57.447 192.253 57.447 41.773 0 70.801-6.104 72.271-6.422 271.306-63.354 281.611-306.618 281.181-350.943 50.857-46.725 58.957-64.963 60.233-69.512a13.857 13.857 0 0 0-5.519-15.161zm-78.054 68.444a13.877 13.877 0 0 0-4.521 11.234c.181 2.635 15.006 264.801-259.365 328.877-.264.055-27.6 5.756-66.239 5.756-36.004 0-83.658-4.924-129.135-24.881 41.635-2.664 92.687-15.438 129.412-56.059 3.675-4.078 4.577-9.918 2.344-14.938-2.233-5.008-7.239-8.238-12.718-8.238-2.58 0-57.168-.652-84.49-51.398 12.648.402 24.118-1.471 32.62-5.34 5.45-2.482 8.668-8.17 8.03-14.119-.638-5.949-5.048-10.818-10.901-12.08-2.954-.637-65.795-14.951-77.126-81.231 9.847 3.759 21.83 6.366 33.425 4.66a13.89 13.89 0 0 0 11.303-9.902 13.889 13.889 0 0 0-4.341-14.382c-2.773-2.358-62.702-54.436-36.669-122.588C94.433 153.41 189.422 236.819 303.967 230.37a13.874 13.874 0 0 0 10.401-5.658 13.914 13.914 0 0 0 2.247-11.636 104.148 104.148 0 0 1-3.231-25.824c0-57.182 46.53-103.713 103.74-103.713 28.029 0 54.283 10.998 73.95 30.983a13.894 13.894 0 0 0 9.652 4.133l2.136.014c10.194 0 26.171-1.234 44.492-7.143-5.866 6.199-13.494 13.189-23.383 20.831a13.872 13.872 0 0 0-4.452 15.963c2.205 5.728 7.975 9.334 14.021 8.834 2.247-.18 12.121-1.04 24.34-3.231-7.697 7.878-17.502 17.35-29.984 28.681z"></path></symbol><symbol viewBox="0 0 512 512" id="bi-twitter-2"><path d="M437.022 74.984C388.67 26.63 324.381 0 256 0 187.624 0 123.338 26.63 74.984 74.984S0 187.624 0 256c0 68.388 26.63 132.678 74.984 181.028C123.335 485.375 187.621 512 256 512c68.385 0 132.673-26.625 181.021-74.972C485.372 388.679 512 324.389 512 256c0-68.377-26.628-132.664-74.978-181.016zm-11.314 350.73C380.381 471.039 320.111 496 256 496c-64.106 0-124.374-24.961-169.703-70.286C40.965 380.386 16 320.113 16 256c0-64.102 24.965-124.37 70.297-169.703C131.63 40.965 191.898 16 256 16c64.108 0 124.378 24.965 169.708 70.297C471.037 131.628 496 191.896 496 256c0 64.115-24.963 124.387-70.292 169.714z"></path><path d="M430.038 114.969a7.999 7.999 0 0 0-11.253-1.172 7.999 7.999 0 0 0-1.172 11.252C447.526 161.919 464 208.426 464 256c0 55.567-21.635 107.803-60.919 147.085C363.797 442.367 311.563 464 256 464c-51.26 0-100.505-18.807-138.663-52.956a8 8 0 0 0-10.67 11.922C147.763 459.745 200.797 480 256 480c59.837 0 116.089-23.297 158.394-65.601C456.701 372.095 480 315.84 480 256c0-51.233-17.744-101.319-49.962-141.031zM48 256c0-114.691 93.309-208 208-208 51.26 0 100.504 18.808 138.662 52.959a8 8 0 0 0 11.296-.625 8 8 0 0 0-.625-11.296C364.237 52.256 311.203 32 256 32c-59.829 0-116.08 23.301-158.389 65.611C55.301 139.921 32 196.171 32 256c0 51.239 17.744 101.328 49.963 141.038a7.983 7.983 0 0 0 6.217 2.96 8 8 0 0 0 6.208-13.041C64.474 350.088 48 303.58 48 256z"></path><path d="M398.655 194.764a8 8 0 0 0-9.89-11.757c-.204.09-.408.18-.612.268a58.67 58.67 0 0 0 4.63-10.676 7.999 7.999 0 0 0-11.702-9.32 93.353 93.353 0 0 1-25.726 10.498c-10.798-9.778-25.002-15.307-39.646-15.307-32.47 0-58.887 26.402-58.887 58.855 0 .928.021 1.854.063 2.776-34.859-4.249-67.035-21.913-89.417-49.384a8 8 0 0 0-13.114 1.026c-5.214 8.949-7.97 19.185-7.97 29.602a58.937 58.937 0 0 0 7.052 28.008 8 8 0 0 0-7.47 7.983v.636c0 17.624 7.908 33.796 20.616 44.719a8 8 0 0 0-2.395 8.497c5.467 17.082 18.25 30.333 34.264 36.714-13.001 6.537-27.355 9.933-42.315 9.933-3.772 0-7.544-.216-11.211-.643a7.999 7.999 0 0 0-5.244 14.68A152.178 152.178 0 0 0 221.996 376c57.454 0 93.424-27.125 113.482-49.88 24.968-28.326 39.288-65.827 39.288-102.89 0-.914-.007-1.804-.022-2.676a110.46 110.46 0 0 0 23.911-25.79zm-36.724 15.406a8.002 8.002 0 0 0-3.311 6.883c.097 1.97.145 3.99.145 6.177 0 33.221-12.863 66.866-35.29 92.31C305.597 335.822 273.479 360 221.996 360c-15.75 0-31.25-2.705-45.896-7.938 17.51-3.161 33.891-10.506 48.153-21.695a8 8 0 0 0-4.788-14.293 42.895 42.895 0 0 1-34.527-18.535 59.487 59.487 0 0 0 11.91-1.951 8 8 0 0 0-.501-15.565c-15.937-3.219-28.377-15.183-32.716-30.254a59.173 59.173 0 0 0 13.119 1.932 8 8 0 0 0 4.708-14.65c-11.942-7.97-19.071-21.318-19.071-35.707 0-3.646.462-7.259 1.363-10.751 26.808 27.682 63.308 44.387 101.994 46.315a8.002 8.002 0 0 0 8.189-9.809 43.065 43.065 0 0 1-1.108-9.775c0-23.63 19.239-42.855 42.887-42.855 11.804 0 23.217 4.931 31.314 13.527a8.002 8.002 0 0 0 7.358 2.367 109.068 109.068 0 0 0 8.986-2.156 43.194 43.194 0 0 1-4.696 3.25 8 8 0 0 0-3.463 9.442 7.995 7.995 0 0 0 8.506 5.367c1.303-.153 2.602-.329 3.897-.529a96.1 96.1 0 0 1-5.683 4.433z"></path></symbol><symbol viewBox="0 0 512 512" id="bi-twitter-f-1"><path d="M512 97.248c-19.04 8.352-39.328 13.888-60.48 16.576 21.76-12.992 38.368-33.408 46.176-58.016-20.288 12.096-42.688 20.64-66.56 25.408C411.872 60.704 384.416 48 354.464 48c-58.112 0-104.896 47.168-104.896 104.992 0 8.32.704 16.32 2.432 23.936-87.264-4.256-164.48-46.08-216.352-109.792-9.056 15.712-14.368 33.696-14.368 53.056 0 36.352 18.72 68.576 46.624 87.232-16.864-.32-33.408-5.216-47.424-12.928v1.152c0 51.008 36.384 93.376 84.096 103.136-8.544 2.336-17.856 3.456-27.52 3.456-6.72 0-13.504-.384-19.872-1.792 13.6 41.568 52.192 72.128 98.08 73.12-35.712 27.936-81.056 44.768-130.144 44.768-8.608 0-16.864-.384-25.12-1.44C46.496 446.88 101.6 464 161.024 464c193.152 0 298.752-160 298.752-298.688 0-4.64-.16-9.12-.384-13.568 20.832-14.784 38.336-33.248 52.608-54.496z"></path></symbol><symbol id="bi-twitter-f"><path d="M67.261 67.496H45.054c-3.087 0-5.712-1.08-7.869-3.25-2.167-2.172-3.238-4.797-3.238-7.898v-7.904H65.59c2.854 0 5.312-1.025 7.354-3.062 2.041-2.054 3.066-4.509 3.066-7.366 0-2.867-1.025-5.319-3.072-7.366-2.049-2.042-4.515-3.066-7.381-3.066H33.946v-16.33c0-3.09-1.102-5.735-3.29-7.939C28.478 1.107 25.842 0 22.782 0c-3.146 0-5.825 1.091-8.004 3.25-2.187 2.166-3.278 4.834-3.278 8.014v45.089c0 9.274 3.278 17.197 9.837 23.773C27.901 86.715 35.814 90 45.066 90h22.203c3.082 0 5.729-1.107 7.93-3.314 2.203-2.197 3.302-4.849 3.302-7.936 0-3.088-1.099-5.734-3.302-7.941-2.202-2.202-4.852-3.313-7.938-3.313z"></path></symbol><symbol viewBox="0 0 31.107 31.107" id="bi-twitter"><path d="M22.774 31.107h-8.313c-5.382 0-9.761-4.379-9.761-9.761V3.633A3.637 3.637 0 0 1 8.333 0a3.637 3.637 0 0 1 3.633 3.633v7.952h8.56a3.637 3.637 0 0 1 3.633 3.633 3.637 3.637 0 0 1-3.633 3.633h-8.56v2.496a2.498 2.498 0 0 0 2.495 2.495h8.313c2.003 0 3.633 1.63 3.633 3.633s-1.63 3.632-3.633 3.632zM8.333 1.774a1.86 1.86 0 0 0-1.858 1.858v17.714c0 4.403 3.583 7.985 7.986 7.985h8.313c1.024 0 1.858-.833 1.858-1.857s-.833-1.858-1.858-1.858h-8.313a4.275 4.275 0 0 1-4.271-4.269v-3.383c0-.49.397-.888.888-.888h9.447a1.86 1.86 0 0 0 1.857-1.858 1.859 1.859 0 0 0-1.857-1.857h-9.447a.889.889 0 0 1-.888-.888v-8.84a1.86 1.86 0 0 0-1.857-1.859z" style="fill:#010002"></path></symbol></svg>