<svg xmlns="http://www.w3.org/2000/svg" xmlns:xlink="http://www.w3.org/1999/xlink" width="0" height="0" style="display:none;"><symbol viewBox="0 0 512.001 512.001" id="bicons-envelope-1"><path d="M501.801 90.455H10.199C4.567 90.455 0 95.021 0 100.654v268.728c0 28.764 23.4 52.165 52.165 52.165h407.671c28.764 0 52.165-23.401 52.165-52.165V100.654c-.001-5.633-4.568-10.199-10.2-10.199zm-10.199 278.926c0 17.516-14.25 31.766-31.766 31.766H52.165c-17.516 0-31.766-14.251-31.766-31.766V122.906l229.14 187.584a10.184 10.184 0 0 0 6.461 2.307c2.287 0 4.574-.767 6.452-2.3l177.306-144.829c4.362-3.564 5.01-9.988 1.447-14.351-3.565-4.363-9.988-5.011-14.351-1.446L256.007 289.423 37.879 110.853h453.723v258.528z"></path><path d="M469.923 127.859c-3.563-4.363-9.99-5.011-14.35-1.447l-3.06 2.499c-4.363 3.564-5.011 9.988-1.448 14.351a10.177 10.177 0 0 0 7.905 3.747c2.269 0 4.552-.754 6.445-2.3l3.06-2.499c4.363-3.563 5.011-9.988 1.448-14.351z"></path></symbol><symbol id="bicons-envelope-f"><path d="M49.106 178.729c6.472 4.567 25.981 18.131 58.528 40.685 32.548 22.554 57.482 39.92 74.803 52.099 1.903 1.335 5.946 4.237 12.131 8.71 6.186 4.476 11.326 8.093 15.416 10.852 4.093 2.758 9.041 5.852 14.849 9.277 5.806 3.422 11.279 5.996 16.418 7.7 5.14 1.718 9.898 2.569 14.275 2.569h.575c4.377 0 9.137-.852 14.277-2.569 5.137-1.704 10.615-4.281 16.416-7.7 5.804-3.429 10.752-6.52 14.845-9.277 4.093-2.759 9.229-6.376 15.417-10.852 6.184-4.477 10.232-7.375 12.135-8.71 17.508-12.179 62.051-43.11 133.615-92.79 13.894-9.703 25.502-21.411 34.827-35.116 9.332-13.699 13.993-28.07 13.993-43.105 0-12.564-4.523-23.319-13.565-32.264-9.041-8.947-19.749-13.418-32.117-13.418H45.679c-14.655 0-25.933 4.948-33.832 14.844C3.949 79.562 0 91.934 0 106.779c0 11.991 5.236 24.985 15.703 38.974 10.466 13.99 21.604 24.983 33.403 32.976z"></path><path d="M483.072 209.275c-62.424 42.251-109.824 75.087-142.177 98.501-10.849 7.991-19.65 14.229-26.409 18.699-6.759 4.473-15.748 9.041-26.98 13.702-11.228 4.668-21.692 6.995-31.401 6.995h-.578c-9.707 0-20.177-2.327-31.405-6.995-11.228-4.661-20.223-9.229-26.98-13.702-6.755-4.47-15.559-10.708-26.407-18.699-25.697-18.842-72.995-51.68-141.896-98.501C17.987 202.047 8.375 193.762 0 184.437v226.685c0 12.57 4.471 23.319 13.418 32.265 8.945 8.949 19.701 13.422 32.264 13.422h420.266c12.56 0 23.315-4.473 32.261-13.422 8.949-8.949 13.418-19.694 13.418-32.265V184.437c-8.186 9.132-17.7 17.417-28.555 24.838z"></path></symbol><symbol id="bicons-envelope"><path d="M498.208 68.235c-8.945-8.947-19.701-13.418-32.261-13.418H45.682c-12.562 0-23.318 4.471-32.264 13.418C4.471 77.18 0 87.935 0 100.499v310.633c0 12.566 4.471 23.312 13.418 32.257 8.945 8.953 19.701 13.422 32.264 13.422h420.266c12.56 0 23.315-4.469 32.261-13.422 8.949-8.945 13.418-19.697 13.418-32.257V100.499c-.001-12.564-4.469-23.319-13.419-32.264zm-23.13 342.89c0 2.475-.903 4.616-2.714 6.424-1.81 1.81-3.949 2.706-6.42 2.706H45.679c-2.474 0-4.616-.896-6.423-2.706-1.809-1.808-2.712-3.949-2.712-6.424V191.858a167.121 167.121 0 0 0 19.7 18.843c51.012 39.209 91.553 71.374 121.627 96.5 9.707 8.186 17.607 14.561 23.697 19.13 6.09 4.571 14.322 9.185 24.694 13.846 10.373 4.668 20.129 6.991 29.265 6.991h.571c9.134 0 18.894-2.323 29.263-6.991 10.376-4.661 18.613-9.274 24.701-13.846 6.089-4.569 13.99-10.944 23.698-19.13 30.074-25.126 70.61-57.291 121.624-96.5a166.295 166.295 0 0 0 19.694-18.843v219.267zm0-303.205v3.14c0 11.229-4.421 23.745-13.271 37.543-8.851 13.798-18.419 24.792-28.691 32.974a43121.052 43121.052 0 0 0-114.495 90.506c-1.14.951-4.474 3.757-9.996 8.418-5.514 4.668-9.894 8.241-13.131 10.712-3.241 2.478-7.471 5.475-12.703 8.993-5.236 3.518-10.041 6.14-14.418 7.851-4.377 1.707-8.47 2.562-12.275 2.562h-.571c-3.806 0-7.895-.855-12.275-2.562-4.377-1.711-9.185-4.333-14.417-7.851-5.231-3.519-9.467-6.516-12.703-8.993-3.234-2.471-7.614-6.044-13.132-10.712-5.52-4.661-8.854-7.467-9.995-8.418a42000.437 42000.437 0 0 0-114.487-90.506c-27.981-22.076-41.969-49.106-41.969-81.083 0-2.472.903-4.615 2.712-6.421 1.809-1.809 3.949-2.714 6.423-2.714H465.95c1.52.855 2.854 1.093 3.997.715 1.143-.385 1.998.331 2.566 2.138.571 1.809 1.095 2.664 1.57 2.57.477-.096.764 1.093.859 3.571.089 2.473.137 3.718.137 3.718v3.849h-.001z"></path></symbol><symbol viewBox="0 0 512 512" id="bicons-place-1"><path d="M255.873 0c-81.115 0-147.106 65.992-147.106 147.106 0 33.718 11.669 66.591 32.883 92.706.158.245.328.484.51.716l105.83 135.584a10 10 0 0 0 15.765-.002l106.338-136.297.109-.143c21.137-26.082 32.775-58.939 32.775-92.564C402.979 65.992 336.988 0 255.873 0zm98.578 227.344c-.127.156-.247.313-.363.474l-98.217 125.889-97.226-124.56a10.041 10.041 0 0 0-.814-1.14c-18.744-22.687-29.066-51.418-29.066-80.901 0-70.087 57.021-127.108 127.108-127.108s127.108 57.021 127.109 127.108c0 29.168-10.133 57.664-28.531 80.238z"></path><path d="M342.179 123.759c-1.563-5.297-7.124-8.323-12.42-6.761-5.297 1.563-8.324 7.123-6.761 12.42 7.269 24.641.512 51.222-17.635 69.369-13.219 13.22-30.796 20.5-49.491 20.5s-36.272-7.28-49.492-20.501c-13.22-13.22-20.5-30.796-20.5-49.492s7.28-36.273 20.501-49.492a70 70 0 0 1 69.428-17.617c5.297 1.569 10.859-1.454 12.426-6.749 1.568-5.295-1.455-10.859-6.749-12.426-31.696-9.382-65.892-.702-89.245 22.651-16.996 16.997-26.357 39.596-26.357 63.633s9.36 46.635 26.357 63.632 39.596 26.358 63.633 26.358c24.037 0 46.635-9.361 63.632-26.356 23.329-23.329 32.017-57.497 22.673-89.169z"></path><path d="m319.683 85.837-.177-.178c-3.906-3.905-10.237-3.905-14.141 0-3.905 3.906-3.905 10.237 0 14.141l.177.178c1.952 1.953 4.511 2.929 7.07 2.929s5.118-.976 7.071-2.929c3.904-3.905 3.904-10.236 0-14.141zm89.925 219.468c-5.245-1.723-10.898 1.126-12.624 6.372-1.726 5.245 1.127 10.897 6.372 12.624 55.49 18.26 88.617 45.619 88.617 73.184 0 23.308-24.039 46.892-65.955 64.702-45.25 19.227-105.63 29.816-170.019 29.816S131.23 481.414 85.98 462.187c-41.915-17.81-65.955-41.393-65.955-64.702 0-19.52 16.836-39.348 47.408-55.834 32.301-17.419 78.046-30.034 128.807-35.521 5.49-.594 9.46-5.525 8.866-11.016-.594-5.49-5.527-9.464-11.016-8.866-53.273 5.759-101.625 19.184-136.15 37.802C20.053 344.481.027 369.874.027 397.485c0 32.183 27.748 61.698 78.132 83.107C125.828 500.845 188.985 512 256 512s130.172-11.155 177.839-31.408c50.384-21.409 78.132-50.923 78.132-83.107 0-37.174-37.309-70.772-102.363-92.18z"></path><path d="m363.857 293.317-.348-.07c-5.413-1.091-10.687 2.412-11.779 7.825-1.091 5.413 2.412 10.687 7.825 11.779l.348.07c.668.134 1.332.199 1.988.199 4.661 0 8.833-3.279 9.791-8.024 1.091-5.413-2.412-10.687-7.825-11.779zm-183.458 43.704c-1.083-5.414-6.35-8.925-11.766-7.844-.225.045-.464.101-.686.162-5.327 1.453-8.468 6.949-7.015 12.277 1.213 4.448 5.243 7.371 9.641 7.371.787 0 1.584-.093 2.38-.288 5.189-1.255 8.503-6.396 7.446-11.678z"></path><path d="M289.363 320.746c-5.511-.425-10.318 3.683-10.749 9.188-.431 5.505 3.683 10.318 9.188 10.749 65.285 5.11 100.056 24.205 100.056 36.024 0 5.702-9.09 15.388-34.709 23.92-25.802 8.593-60.303 13.326-97.149 13.326s-71.348-4.732-97.149-13.326c-25.619-8.532-34.709-18.218-34.709-23.92 0-5.211 7.067-11.781 18.904-17.572 4.96-2.427 7.013-8.415 4.586-13.375-2.427-4.96-8.415-7.014-13.376-4.586-24.888 12.178-30.113 26.045-30.113 35.535 0 37.581 76.393 57.244 151.856 57.244s151.856-19.663 151.857-57.245c.001-34.46-63.831-51.683-118.493-55.962z"></path></symbol><symbol viewBox="0 0 512 512" id="bicons-place-f"><path d="M256 0C153.755 0 70.573 83.182 70.573 185.426c0 126.888 165.939 313.167 173.004 321.035 6.636 7.391 18.222 7.378 24.846 0 7.065-7.868 173.004-194.147 173.004-321.035C441.425 83.182 358.244 0 256 0zm0 278.719c-51.442 0-93.292-41.851-93.292-93.293S204.559 92.134 256 92.134s93.291 41.851 93.291 93.293-41.85 93.292-93.291 93.292z"></path></symbol><symbol viewBox="0 0 512 512" id="bicons-place"><path d="M256 0C156.748 0 76 80.748 76 180c0 33.534 9.289 66.26 26.869 94.652l142.885 230.257A15 15 0 0 0 258.499 512h.119a14.997 14.997 0 0 0 12.75-7.292L410.611 272.22C427.221 244.428 436 212.539 436 180 436 80.748 355.252 0 256 0zm128.866 256.818L258.272 468.186l-129.905-209.34C113.734 235.214 105.8 207.95 105.8 180c0-82.71 67.49-150.2 150.2-150.2S406.1 97.29 406.1 180c0 27.121-7.411 53.688-21.234 76.818z"></path><path d="M256 90c-49.626 0-90 40.374-90 90 0 49.309 39.717 90 90 90 50.903 0 90-41.233 90-90 0-49.626-40.374-90-90-90zm0 150.2c-33.257 0-60.2-27.033-60.2-60.2 0-33.084 27.116-60.2 60.2-60.2s60.1 27.116 60.1 60.2c0 32.683-26.316 60.2-60.1 60.2z"></path></symbol><symbol id="bicons-printer-1"><path d="M400.1 100.918h-9.871V11.646C390.229 5.215 385.014 0 378.582 0H108.804c-6.436 0-11.646 5.215-11.646 11.646v89.271h-9.877c-38.523 0-69.871 31.344-69.871 69.871v144.258c0 38.528 31.348 69.87 69.871 69.87h9.877v90.818c0 6.432 5.21 11.646 11.646 11.646h269.778c6.432 0 11.646-5.215 11.646-11.646v-90.818h9.871c38.523 0 69.871-31.342 69.871-69.87V170.789c.001-38.528-31.347-69.871-69.87-69.871zM120.449 23.291h246.489v77.627H120.449V23.291zm246.489 440.801H120.449V320.465h246.489v143.627zm79.744-149.046c0 25.687-20.896 46.581-46.582 46.581h-9.871v-41.162h25.186c6.436 0 11.645-5.214 11.645-11.646 0-6.43-5.209-11.645-11.645-11.645H75.421c-6.431 0-11.646 5.215-11.646 11.645 0 6.433 5.215 11.646 11.646 11.646h21.737v41.162h-9.877c-25.685 0-46.581-20.896-46.581-46.581V170.789c0-25.685 20.896-46.58 46.581-46.58H400.1c25.684 0 46.58 20.896 46.58 46.58v144.257h.002z"></path><path d="M378.582 170.646c-8.771 0-15.893 7.119-15.893 15.893s7.119 15.893 15.893 15.893c8.775 0 15.895-7.118 15.895-15.893-.002-8.774-7.12-15.893-15.895-15.893zM147.618 360.734h192.146c6.432 0 11.646-5.213 11.646-11.646 0-6.43-5.215-11.645-11.646-11.645H147.618c-6.431 0-11.646 5.215-11.646 11.645 0 6.433 5.215 11.646 11.646 11.646zm0 43.192h192.146c6.432 0 11.646-5.217 11.646-11.646 0-6.432-5.215-11.645-11.646-11.645H147.618c-6.431 0-11.646 5.213-11.646 11.645s5.215 11.646 11.646 11.646z"></path></symbol><symbol viewBox="0 0 16 16" id="bicons-printer-f"><path d="M4 12.5v3h8v-5H4v2zm1-1h6v1H5v-1zm0 2h6v1H5v-1zm7-10v-3H4v5h8z" style="fill:#030104"></path><path d="M14 3.5h-1v3H3v-3H2c-1 0-2 1-2 2v5c0 1 1 2 2 2h1v-3h10v3h1c1 0 2-1 2-2v-5c0-1-1-2-2-2z" style="fill:#030104"></path></symbol><symbol viewBox="0 0 512 512" id="bicons-printer"><path d="M475.934 108.229H380.35V54.285c0-5.995-4.862-10.857-10.857-10.857H142.507c-5.995 0-10.857 4.862-10.857 10.857v53.945H36.066C16.179 108.229 0 124.409 0 144.296v172.837C0 337.02 16.179 353.2 36.066 353.2h95.584v104.515c0 5.995 4.862 10.857 10.857 10.857h226.987c5.995 0 10.857-4.862 10.857-10.857V353.2h95.584c19.886 0 36.066-16.179 36.066-36.067V144.296c-.001-19.887-16.181-36.067-36.067-36.067zm-95.585 21.713h25.897v30.385h-25.897v-30.385zm-226.986-64.8h205.273v95.186H153.363V65.142zm-47.61 64.801h25.897v30.385h-25.897v-30.385zm252.884 316.915H153.363V303.879h205.273v142.979zm131.651-129.725h-.001c0 7.915-6.439 14.354-14.352 14.354H380.35V303.88h19.805c5.995 0 10.857-4.862 10.857-10.857s-4.862-10.857-10.857-10.857H111.846c-5.995 0-10.857 4.862-10.857 10.857s4.862 10.857 10.857 10.857h19.805v27.607H36.066c-7.913 0-14.352-6.439-14.352-14.354V144.296c0-7.914 6.439-14.354 14.352-14.354H84.04v41.241c0 5.995 4.861 10.857 10.857 10.857h322.207c5.995 0 10.857-4.862 10.857-10.857v-41.241h47.974c7.913 0 14.353 6.439 14.353 14.354v172.837z"></path><circle cx="68.799" cy="219.261" r="13.602"></circle><path d="M252.849 386.456h-50.68c-5.995 0-10.857 4.86-10.857 10.857 0 5.995 4.861 10.857 10.857 10.857h50.68c5.995 0 10.857-4.862 10.857-10.857 0-5.997-4.862-10.857-10.857-10.857zm56.982-54.973H202.169c-5.995 0-10.857 4.862-10.857 10.857 0 5.996 4.861 10.857 10.857 10.857H309.83c5.995 0 10.857-4.861 10.857-10.857 0-5.995-4.861-10.857-10.856-10.857z"></path></symbol></svg>